<?xml version="1.0" encoding="utf-8"?>
<!DOCTYPE svg PUBLIC "-//W3C//DTD SVG 1.0//EN" "http://www.w3.org/TR/2001/REC-SVG-20010904/DTD/svg10.dtd">
<svg version="1.0" xmlns="http://www.w3.org/2000/svg" width="674px" height="764px" viewBox="0 0 674 764" preserveAspectRatio="xMidYMid meet">
 <g fill="#ffffff">
  <path d="M0 382 l0 -382 337 0 337 0 0 382 0 382 -337 0 -337 0 0 -382z m394 286.75 l0.95 -2.25 44.30 0 44.25 0 0 -24.15 0 -24.20 -1.25 -0.55 c-1 -0.45 -35.70 -0.60 -139.50 -0.60 -97 0 -138.25 -0.15 -138.25 -0.55 0 -0.25 0.25 -0.35 0.50 -0.20 0.30 0.20 0.50 -1.10 0.50 -3.55 0 -2.15 -0.10 -3.75 -0.20 -3.65 -1.20 1.20 -4.30 5.25 -4.30 5.55 0 0.25 0.30 0.40 0.70 0.40 0.45 0 0.60 0.35 0.45 1 -0.25 0.95 -0.70 1 -7.45 1 -3.95 0 -7.20 0.20 -7.20 0.45 0 0.25 -0.40 0.55 -0.85 0.65 -0.85 0.25 -0.90 1.90 -1.05 24.05 -0.10 13.15 -0.10 23.90 0 23.95 0.05 0.10 45.90 0.25 101.85 0.40 l101.70 0.25 0.80 2.15 c0.60 1.65 1 2.10 1.90 2.10 0.90 0 1.40 -0.50 2.15 -2.25z m-196.50 -53.45 c0 -0.40 -0.20 -0.85 -0.40 -1 -0.65 -0.40 -1.75 0.55 -1.40 1.15 0.50 0.80 1.80 0.70 1.80 -0.15z m-1.20 -2.35 c0.15 -0.30 0.10 -0.75 -0.10 -0.95 -0.60 -0.60 -1.90 0.25 -1.50 0.95 0.45 0.70 1.15 0.70 1.60 0z m-1.15 -3.25 c-0.15 -0.40 -0.45 -0.70 -0.65 -0.70 -0.65 0 -1.10 0.95 -0.75 1.50 0.45 0.70 1.70 0 1.40 -0.80z m308.85 -2.70 c8.90 -1.05 19.65 -3.70 21.55 -5.30 0.40 -0.40 1 -0.70 1.30 -0.70 0.30 0 2.25 -0.90 4.35 -2 2.05 -1.10 3.95 -2 4.25 -2 0.25 0 1.95 -0.90 3.75 -2 1.80 -1.10 3.50 -2 3.70 -2 0.25 0 0.85 -0.45 1.35 -1 0.50 -0.55 1.20 -1 1.50 -1 0.35 0 1.70 -1.10 3.05 -2.50 1.35 -1.35 2.60 -2.50 2.85 -2.50 0.80 0 9.05 -8.35 11.35 -11.50 3.10 -4.15 4.50 -5.90 5.75 -7.20 1.10 -1.15 2.35 -3.20 3.45 -5.55 0.40 -0.85 1.85 -3.85 3.25 -6.75 1.40 -2.90 2.55 -5.55 2.55 -5.95 0 -0.55 0.15 -0.55 0.75 -0.05 0.55 0.45 0.95 0.50 1.35 0.10 0.60 -0.60 0.05 -1.75 -0.65 -1.30 -0.55 0.30 -0.35 -2.05 0.20 -2.60 0.20 -0.20 0.35 -0.90 0.35 -1.50 0 -0.65 0.25 -1.30 0.50 -1.45 0.30 -0.15 0.50 -0.85 0.50 -1.50 0 -0.65 0.20 -1.30 0.45 -1.45 0.50 -0.30 0.75 -1.40 1.85 -8.30 0.60 -3.60 0.85 -10.45 1.05 -28 l0.25 -23.25 1.20 -2.60 c0.65 -1.40 1.20 -2.70 1.20 -2.85 0 -0.10 0.25 -0.85 0.50 -1.55 0.45 -1.15 0.65 -1.25 1.25 -0.75 0.65 0.55 0.75 0.10 0.75 -3.25 0 -2.15 -0.10 -3.80 -0.20 -3.70 -1.20 1.20 -4.30 5.25 -4.30 5.55 0 0.25 0.30 0.40 0.70 0.40 0.45 0 0.60 0.35 0.45 1 -0.15 0.55 -0.60 1 -0.95 1 -0.60 0 -0.70 -5.85 -0.70 -36.95 0 -20.35 0.20 -37.10 0.45 -37.25 0.35 -0.25 0.75 -1.15 2.55 -6 0.45 -1.15 0.65 -1.30 1.25 -0.80 0.65 0.55 0.75 0.10 0.75 -3.25 0 -2.15 -0.10 -3.80 -0.20 -3.70 -1.20 1.20 -4.30 5.25 -4.30 5.55 0 0.25 0.30 0.40 0.70 0.40 0.45 0 0.60 0.35 0.45 1 -0.15 0.55 -0.60 1 -0.95 1 -0.60 0 -0.70 -5.85 -0.70 -36.95 0 -20.35 0.20 -37.10 0.45 -37.25 0.35 -0.25 0.75 -1.15 2.55 -6 0.45 -1.15 0.65 -1.30 1.25 -0.80 0.65 0.55 0.75 0.10 0.75 -3.25 0 -2.15 -0.10 -3.80 -0.20 -3.70 -1.20 1.20 -4.30 5.25 -4.30 5.55 0 0.25 0.30 0.40 0.70 0.40 0.45 0 0.60 0.35 0.45 1 -0.15 0.55 -0.60 1 -0.95 1 -0.60 0 -0.70 -4 -0.70 -24.60 -0.05 -23.45 -0.40 -33.10 -1.50 -40.40 -0.90 -6.05 -1.10 -7 -1.55 -7 -0.25 0 -0.45 -0.80 -0.45 -1.75 0 -1.20 0.25 -1.75 0.75 -1.75 0.40 0 0.75 0.35 0.75 0.80 0 0.55 0.40 0.70 1.35 0.60 1.10 -0.10 1.55 -0.65 2.45 -2.90 0.60 -1.50 1.25 -3.20 1.40 -3.70 0.20 -0.80 0.35 -0.85 1 -0.30 0.70 0.55 0.80 0.20 0.80 -3.25 0 -2.15 -0.10 -3.80 -0.20 -3.70 -1.20 1.20 -4.30 5.25 -4.30 5.55 0 0.25 0.30 0.40 0.70 0.40 0.60 0 0.50 0.55 -0.35 3 -0.60 1.65 -1.25 3 -1.40 3 -0.15 0 -0.65 -0.90 -1.10 -2 -0.55 -1.40 -1 -1.90 -1.55 -1.70 -0.40 0.15 -0.60 0.60 -0.45 1 0.15 0.45 -0.10 0.70 -0.80 0.70 -0.85 0 -1.05 -0.30 -1.05 -1.50 0 -0.80 -0.20 -1.50 -0.50 -1.50 -0.25 0 -0.50 -0.55 -0.50 -1.25 0 -0.70 -0.20 -1.25 -0.50 -1.25 -0.25 0 -0.50 -0.55 -0.50 -1.25 0 -0.70 -0.30 -1.25 -0.65 -1.25 -0.40 0 -0.95 -0.85 -1.25 -1.90 -0.75 -2.35 -5.85 -11.65 -6.85 -12.40 -0.40 -0.30 -0.75 -0.70 -0.75 -0.90 0 -0.60 -2.95 -4.10 -7.10 -8.50 -2.10 -2.20 -4.20 -4.50 -4.75 -5.10 -1.50 -1.70 -6.65 -5.90 -10.15 -8.20 -1.80 -1.20 -3.35 -2.30 -3.50 -2.50 -0.15 -0.15 -1 -0.60 -1.85 -0.95 -0.90 -0.40 -1.65 -0.85 -1.65 -1.10 0 -0.25 -0.35 -0.45 -0.75 -0.45 -0.40 0 -0.75 -0.15 -0.75 -0.40 0 -0.20 -0.85 -0.75 -1.85 -1.20 -1.05 -0.50 -2.45 -1.20 -3.15 -1.60 -0.70 -0.35 -1.85 -0.95 -2.60 -1.25 -0.80 -0.30 -1.90 -0.75 -2.50 -1.05 -3.20 -1.35 -13.35 -4 -18.50 -4.80 -3.25 -0.55 -5.90 -1.10 -5.90 -1.30 0 -0.25 -38.80 -0.40 -86.25 -0.40 -47.45 0 -86.25 -0.10 -86.25 -0.20 0 -0.10 0.30 -0.95 0.70 -1.85 0.35 -0.95 0.80 -2.10 1 -2.65 0.25 -0.75 0.45 -0.80 1.05 -0.30 0.65 0.55 0.75 0.25 0.75 -2.20 l0 -2.80 57 0 57 0 0.15 -27.85 c0.15 -38.50 0.15 -39.05 -0.85 -42.05 -2.15 -6.45 -8.60 -12.85 -14.60 -14.40 -2.30 -0.60 -15.50 -0.70 -84.70 -0.70 l-82 0 0.95 -2.35 c0.50 -1.35 1.05 -2.80 1.25 -3.35 0.25 -0.75 0.45 -0.80 1.05 -0.30 0.65 0.55 0.75 0.10 0.75 -3.25 0 -2.15 -0.10 -3.80 -0.20 -3.70 -1.20 1.20 -4.30 5.25 -4.30 5.55 0 0.25 0.30 0.40 0.70 0.40 0.60 0 0.50 0.55 -0.35 3 -0.60 1.65 -1.25 3 -1.40 3 -0.15 0 -0.65 -0.90 -1.10 -2 -0.55 -1.40 -1 -1.90 -1.50 -1.70 -0.70 0.25 -0.65 0.55 0.15 2.50 l0.95 2.20 -11.10 0 c-12.20 0 -14.55 0.35 -18.85 2.85 -0.70 0.40 -1.65 0.85 -2.10 1 -0.50 0.15 -0.90 0.45 -0.90 0.70 0 0.20 -1.20 1.75 -2.60 3.40 -2.75 3.15 -3.95 5.75 -4.90 10.80 -0.35 2.05 -0.50 12.80 -0.40 34.50 l0.15 31.50 54.90 0.15 54.90 0.10 -1.30 1.65 c-1.45 1.95 -1.55 2.35 -0.55 2.35 0.60 0 0.50 0.55 -0.35 3 -0.60 1.65 -1.25 3 -1.40 3 -0.15 0 -0.65 -0.90 -1.10 -2 -0.55 -1.40 -1 -1.90 -1.50 -1.70 -0.70 0.25 -0.70 0.50 -0.05 2 l0.70 1.70 -79.75 0 c-52.85 0 -79.75 0.15 -79.75 0.50 0 0.30 -0.45 0.50 -1.05 0.50 -3.05 0 -17.80 3.55 -21.70 5.25 -0.80 0.35 -2.30 0.90 -3.25 1.25 -3.30 1.15 -9 4.10 -9.65 4.95 -0.30 0.45 -2.20 1.75 -4.15 2.90 -5.50 3.25 -12 8.25 -14.70 11.35 -0.70 0.80 -2.05 2.40 -3.05 3.50 -0.95 1.15 -2.50 3.05 -3.45 4.30 -0.95 1.25 -2 2.45 -2.35 2.65 -0.35 0.20 -0.65 0.70 -0.65 1.10 0 0.35 -0.20 0.75 -0.45 0.85 -0.55 0.20 -4.05 4.80 -4.05 5.35 0 0.20 -0.75 1.85 -1.65 3.60 -0.90 1.75 -2.50 5.25 -3.55 7.70 -1.05 2.50 -2.10 4.70 -2.35 4.95 -0.25 0.30 -0.45 1 -0.45 1.60 0 0.65 -0.25 1.30 -0.50 1.45 -0.30 0.15 -0.50 0.95 -0.50 1.80 0 0.80 -0.20 1.45 -0.40 1.45 -0.25 0 -0.70 1.30 -1.05 2.90 -0.35 1.55 -0.80 3.75 -1.05 4.85 -0.25 1.10 -0.60 3.25 -0.85 4.75 -0.20 1.50 -0.40 63.50 -0.40 137.75 0 105.45 0.15 135.90 0.60 139 1.30 8.20 1.05 7.25 2.80 11.25 0.45 0.95 0.95 2.65 1.10 3.75 0.20 1.10 0.55 2.25 0.75 2.50 0.25 0.30 1.10 2.25 1.95 4.40 1.95 4.85 5.90 13.25 6.70 14.15 0.75 0.90 3.25 4 8.30 10.45 2.20 2.75 5.15 5.90 6.60 7 1.45 1.10 3.70 3.05 4.95 4.30 2.15 2.20 7.35 5.85 10.95 7.70 1.30 0.65 1.55 0.95 1 1.30 -0.55 0.30 -0.55 0.55 -0.10 1 0.45 0.45 0.80 0.45 1.45 -0.10 0.65 -0.55 0.90 -0.55 1.05 -0.05 0.15 0.30 0.55 0.60 0.90 0.60 0.40 0 1.45 0.40 2.40 0.85 l1.70 0.90 -1.05 2.85 c-0.60 1.60 -1.20 2.90 -1.35 2.90 -0.15 0 -0.65 -0.90 -1.10 -2 -0.55 -1.40 -1 -1.90 -1.50 -1.70 -0.60 0.20 -0.55 0.70 0.35 3 0.90 2.40 1.20 2.70 2.30 2.60 1 -0.10 1.45 -0.75 2.45 -3.40 0.70 -1.80 1.30 -3.35 1.40 -3.45 0.10 -0.15 1.10 0.30 2.30 0.90 5.05 2.75 15.40 5.35 24.35 6.20 4.10 0.40 334.10 0.25 337.50 -0.15z m-370.50 -7.70 c0 -0.40 -0.20 -0.85 -0.40 -1 -0.65 -0.40 -1.75 0.55 -1.40 1.15 0.50 0.80 1.80 0.70 1.80 -0.15z m452.80 -43.30 c0.60 -1.50 1.25 -3.20 1.40 -3.70 0.20 -0.80 0.35 -0.85 1 -0.30 0.70 0.55 0.80 0.20 0.80 -3.25 0 -2.15 -0.10 -3.80 -0.20 -3.70 -1.20 1.20 -4.30 5.25 -4.30 5.55 0 0.25 0.30 0.40 0.70 0.40 0.60 0 0.50 0.55 -0.35 3 -0.60 1.65 -1.25 3 -1.40 3 -0.15 0 -0.65 -0.90 -1.10 -2 -0.55 -1.40 -1 -1.90 -1.50 -1.70 -0.60 0.20 -0.55 0.70 0.35 3 0.90 2.35 1.20 2.70 2.25 2.60 1 -0.10 1.50 -0.75 2.35 -2.90z m-4.80 -4.70 c0 -0.40 -0.20 -0.85 -0.40 -1 -0.65 -0.40 -1.75 0.55 -1.40 1.15 0.50 0.80 1.80 0.70 1.80 -0.15z m0 -320 c0 -0.40 -0.20 -0.85 -0.40 -1 -0.65 -0.40 -1.75 0.55 -1.40 1.15 0.50 0.80 1.80 0.70 1.80 -0.15z m-1.20 -2.35 c0.15 -0.30 0.10 -0.75 -0.10 -0.95 -0.60 -0.60 -1.90 0.25 -1.50 0.95 0.45 0.70 1.15 0.70 1.60 0z m-1.15 -3.25 c-0.15 -0.40 -0.45 -0.70 -0.65 -0.70 -0.65 0 -1.10 0.95 -0.75 1.50 0.45 0.70 1.70 0 1.40 -0.80z m-253.65 -58.40 c0 -0.40 -0.20 -0.85 -0.40 -1 -0.65 -0.40 -1.75 0.55 -1.40 1.15 0.50 0.80 1.80 0.70 1.80 -0.15z m-1.20 -2.35 c0.15 -0.30 0.10 -0.75 -0.10 -0.95 -0.60 -0.60 -1.90 0.25 -1.50 0.95 0.45 0.70 1.15 0.70 1.60 0z m134 -40.95 c0.60 -1.50 1.25 -3.20 1.40 -3.70 0.20 -0.80 0.35 -0.85 1 -0.30 0.70 0.55 0.80 0.20 0.80 -3.25 0 -2.15 -0.10 -3.80 -0.20 -3.70 -1.20 1.20 -4.30 5.25 -4.30 5.55 0 0.25 0.30 0.40 0.70 0.40 0.60 0 0.50 0.55 -0.35 3 -0.60 1.65 -1.25 3 -1.40 3 -0.15 0 -0.65 -0.90 -1.10 -2 -0.55 -1.40 -1 -1.90 -1.50 -1.70 -0.60 0.20 -0.55 0.70 0.35 3 0.90 2.35 1.20 2.70 2.25 2.60 1 -0.10 1.50 -0.75 2.35 -2.90z m-4.80 -4.70 c0 -0.40 -0.20 -0.85 -0.40 -1 -0.65 -0.40 -1.75 0.55 -1.40 1.15 0.50 0.80 1.80 0.70 1.80 -0.15z m-1.20 -2.35 c0.15 -0.30 0.10 -0.75 -0.10 -0.95 -0.60 -0.60 -1.90 0.25 -1.50 0.95 0.45 0.70 1.15 0.70 1.60 0z m-1.15 -3.25 c-0.15 -0.40 -0.45 -0.70 -0.65 -0.70 -0.65 0 -1.10 0.95 -0.75 1.50 0.45 0.70 1.70 0 1.40 -0.80z m-189.65 -42.40 c0 -0.40 -0.20 -0.85 -0.40 -1 -0.65 -0.40 -1.75 0.55 -1.40 1.15 0.50 0.80 1.80 0.70 1.80 -0.15z m-1.20 -2.35 c0.15 -0.30 0.10 -0.75 -0.10 -0.95 -0.60 -0.60 -1.90 0.25 -1.50 0.95 0.45 0.70 1.15 0.70 1.60 0z m-1.15 -3.25 c-0.15 -0.40 -0.45 -0.70 -0.65 -0.70 -0.65 0 -1.10 0.95 -0.75 1.50 0.45 0.70 1.70 0 1.40 -0.80z m-56.85 -5.70 c0.60 -1.50 1.25 -3.20 1.40 -3.70 0.20 -0.80 0.35 -0.85 1 -0.30 0.70 0.55 0.80 0.20 0.80 -3.25 0 -2.15 -0.10 -3.80 -0.20 -3.70 -1.20 1.20 -4.30 5.25 -4.30 5.55 0 0.25 0.30 0.40 0.70 0.40 0.60 0 0.50 0.55 -0.35 3 -0.60 1.65 -1.25 3 -1.40 3 -0.15 0 -0.65 -0.90 -1.10 -2 -0.55 -1.40 -1 -1.90 -1.50 -1.70 -0.60 0.20 -0.55 0.70 0.35 3 0.90 2.35 1.20 2.70 2.25 2.60 1 -0.10 1.50 -0.75 2.35 -2.90z m-4.80 -4.70 c0 -0.40 -0.20 -0.85 -0.40 -1 -0.65 -0.40 -1.75 0.55 -1.40 1.15 0.50 0.80 1.80 0.70 1.80 -0.15z m-1.20 -2.35 c0.15 -0.30 0.10 -0.75 -0.10 -0.95 -0.60 -0.60 -1.90 0.25 -1.50 0.95 0.45 0.70 1.15 0.70 1.60 0z m-1.15 -3.25 c-0.15 -0.40 -0.45 -0.70 -0.65 -0.70 -0.65 0 -1.10 0.95 -0.75 1.50 0.45 0.70 1.70 0 1.40 -0.80z m-120.85 -21.70 c0.60 -1.50 1.25 -3.20 1.40 -3.70 0.20 -0.80 0.35 -0.85 1 -0.30 0.70 0.55 0.80 0.20 0.80 -3.25 0 -2.15 -0.10 -3.80 -0.20 -3.70 -1.20 1.20 -4.30 5.25 -4.30 5.55 0 0.25 0.30 0.40 0.70 0.40 0.60 0 0.50 0.55 -0.35 3 -0.60 1.65 -1.25 3 -1.40 3 -0.15 0 -0.65 -0.90 -1.10 -2 -0.55 -1.40 -1 -1.90 -1.50 -1.70 -0.60 0.20 -0.55 0.70 0.35 3 0.90 2.35 1.20 2.70 2.25 2.60 1 -0.10 1.50 -0.75 2.35 -2.90z m-4.80 -4.70 c0 -0.40 -0.20 -0.85 -0.40 -1 -0.65 -0.40 -1.75 0.55 -1.40 1.15 0.50 0.80 1.80 0.70 1.80 -0.15z m-1.20 -2.35 c0.15 -0.30 0.10 -0.75 -0.10 -0.95 -0.60 -0.60 -1.90 0.25 -1.50 0.95 0.45 0.70 1.15 0.70 1.60 0z m-1.15 -3.25 c-0.15 -0.40 -0.45 -0.70 -0.65 -0.70 -0.65 0 -1.10 0.95 -0.75 1.50 0.45 0.70 1.70 0 1.40 -0.80z"/>
  <path d="M391.30 668.20 c-0.50 -1.30 -0.35 -1.70 0.75 -1.70 0.75 0 0.95 0.20 0.75 0.80 -0.15 0.45 -0.30 1 -0.30 1.25 0 0.75 -0.85 0.50 -1.20 -0.35z"/>
 </g>
 <g fill="#f9de4e">
  <path d="M184.75 667.70 c-0.70 -0.50 -0.75 -3.55 -0.70 -25.50 0 -20.70 0.15 -25.10 0.75 -25.90 0.50 -0.70 0.70 -0.80 0.70 -0.25 0 0.55 0.10 0.55 0.40 0.10 0.30 -0.50 2.50 -0.65 8.25 -0.60 4.30 0.05 7.85 0.15 7.85 0.30 0 0.70 -1.75 5.15 -2.05 5.15 -0.15 0 -0.65 -0.90 -1.10 -2 -0.55 -1.40 -1 -1.90 -1.50 -1.70 -0.60 0.20 -0.55 0.70 0.35 3 0.90 2.35 1.20 2.70 2.25 2.60 1 -0.10 1.50 -0.75 2.35 -2.90 0.60 -1.50 1.25 -3.20 1.40 -3.70 0.20 -0.80 0.35 -0.85 1 -0.30 0.55 0.40 0.80 0.45 0.80 0.05 0 -0.40 36.30 -0.55 139 -0.55 122.85 0 139.10 0.10 139.85 0.75 0.85 0.70 0.90 2.40 0.65 26.40 -0.20 20.05 -0.40 25.60 -0.85 25.55 -0.35 -0.05 -20.70 -0.10 -45.20 -0.10 l-44.50 -0.10 0.35 -1.10 c1 -3.25 1.20 -3.55 1.95 -2.90 0.65 0.55 0.75 0.10 0.75 -3.25 0 -2.15 -0.10 -3.80 -0.20 -3.70 -1.20 1.20 -4.30 5.25 -4.30 5.55 0 0.25 0.35 0.40 0.75 0.40 0.60 0 0.60 0.35 -0.20 2.40 -1.10 2.80 -2.10 3.20 -2.90 1.10 -0.40 -1.05 -0.80 -1.40 -1.35 -1.20 -0.60 0.25 -0.65 0.50 -0.25 1.30 0.30 0.55 0.45 1.05 0.35 1.20 -0.10 0.10 -46.05 0.25 -102.05 0.30 -75.15 0.10 -102.05 0 -102.60 -0.40z m204.75 -4.40 c0 -0.40 -0.20 -0.85 -0.40 -1 -0.65 -0.40 -1.75 0.55 -1.40 1.15 0.50 0.80 1.80 0.70 1.80 -0.15z m-1.20 -2.35 c0.15 -0.30 0.10 -0.75 -0.10 -0.95 -0.60 -0.60 -1.90 0.25 -1.50 0.95 0.45 0.70 1.15 0.70 1.60 0z m-1.15 -3.25 c-0.15 -0.40 -0.45 -0.70 -0.65 -0.70 -0.65 0 -1.10 0.95 -0.75 1.50 0.45 0.70 1.70 0 1.40 -0.80z"/>
  <path d="M165 608.65 c-8.40 -0.80 -21.20 -3.95 -23.40 -5.80 -0.40 -0.30 -0.85 -0.50 -1 -0.35 -0.50 0.50 -1.25 -1.40 -0.90 -2.25 0.25 -0.70 0.45 -0.75 1.05 -0.25 0.65 0.55 0.75 0.10 0.75 -3.25 0 -2.15 -0.10 -3.80 -0.20 -3.70 -1.10 1.15 -4.30 5.25 -4.30 5.55 0 0.15 0.30 0.40 0.70 0.50 0.50 0.10 0.55 0.45 0.25 1.30 -0.35 0.90 -0.60 1 -1.05 0.60 -1.05 -0.90 -4.10 -2.70 -4.85 -2.80 -0.40 -0.10 -1.35 -0.60 -2.10 -1.15 -0.80 -0.60 -1.60 -1.05 -1.80 -1.05 -0.95 0 -9.05 -5.65 -10.90 -7.65 -1.15 -1.15 -3.25 -3 -4.70 -4.10 -1.45 -1.10 -4.40 -4.25 -6.60 -7 -5.05 -6.45 -7.55 -9.55 -8.30 -10.45 -0.80 -0.90 -4.75 -9.30 -6.70 -14.15 -0.85 -2.15 -1.70 -4.10 -1.90 -4.40 -0.20 -0.25 -0.65 -1.80 -1 -3.35 -0.35 -1.55 -0.95 -3.10 -1.30 -3.40 -0.40 -0.35 -0.60 -0.80 -0.45 -1.10 0.15 -0.25 0.05 -0.70 -0.20 -1.05 -0.25 -0.35 -0.60 -1.50 -0.80 -2.60 -0.15 -1.10 -0.55 -3.80 -0.90 -6 -0.50 -3.15 -0.65 -32.80 -0.65 -140.50 0 -75.05 0.20 -137.75 0.40 -139.25 0.25 -1.50 0.60 -3.65 0.85 -4.75 0.25 -1.10 0.70 -3.30 1.05 -4.85 0.35 -1.60 0.80 -2.90 1.05 -2.90 0.20 0 0.40 -0.65 0.40 -1.45 0 -0.85 0.25 -1.65 0.50 -1.80 0.30 -0.15 0.50 -0.80 0.50 -1.45 0 -0.60 0.20 -1.30 0.45 -1.60 0.25 -0.25 1.30 -2.45 2.35 -4.95 1.05 -2.45 2.65 -5.95 3.55 -7.70 0.90 -1.75 1.65 -3.40 1.65 -3.60 0 -0.55 3.50 -5.15 4.05 -5.35 0.25 -0.10 0.45 -0.50 0.45 -0.85 0 -0.40 0.30 -0.90 0.65 -1.10 0.35 -0.20 1.40 -1.40 2.35 -2.65 0.95 -1.25 2.50 -3.15 3.45 -4.30 1 -1.10 2.35 -2.70 3.05 -3.50 2.70 -3.10 9.20 -8.10 14.70 -11.35 1.95 -1.15 3.85 -2.45 4.15 -2.90 0.65 -0.85 6.35 -3.80 9.65 -4.95 0.95 -0.35 2.45 -0.90 3.25 -1.25 3.90 -1.70 18.65 -5.25 21.70 -5.25 0.60 0 1.05 -0.20 1.05 -0.50 0 -0.35 27.05 -0.50 80.20 -0.50 l80.25 0 0.60 1.75 c0.90 2.45 2.70 2.45 3.75 0 l0.70 -1.75 86.75 0 c47.70 0 86.75 0.15 86.75 0.40 0 0.20 2.65 0.75 5.90 1.30 5 0.80 15.10 3.40 18.35 4.75 3.40 1.40 4.10 1.75 5.25 2.35 0.70 0.40 2.10 1.10 3.15 1.60 1 0.45 1.85 1 1.85 1.20 0 0.25 0.35 0.40 0.75 0.40 0.40 0 0.75 0.20 0.75 0.45 0 0.25 0.75 0.70 1.65 1.10 0.85 0.35 1.70 0.80 1.85 0.95 0.15 0.20 1.95 1.45 4 2.85 2.05 1.40 4.90 3.55 6.25 4.75 2.50 2.15 9.05 8.85 11.30 11.60 0.65 0.75 1.95 2.30 2.90 3.35 0.90 1.05 1.55 1.95 1.40 1.95 -0.15 0 0.20 0.55 0.85 1.25 0.60 0.65 2.45 3.85 4.05 7.10 2.65 5.45 3.20 6.60 4.60 10.15 0.30 0.70 0.75 1.80 1.05 2.50 1.65 4.10 2.60 6.70 2.60 7.30 0 0.40 0.20 0.70 0.45 0.70 0.45 0 0.65 0.95 1.55 7 1.10 7.25 1.45 16.90 1.50 39.25 0 18.10 -0.15 23.70 -0.60 24.15 -0.50 0.50 -0.50 0.75 0.05 1.10 0.65 0.35 0.60 0.85 -0.20 3.20 -0.55 1.55 -1.10 2.80 -1.30 2.80 -0.15 0 -0.65 -0.90 -1.10 -2 -0.55 -1.40 -1 -1.90 -1.50 -1.70 -0.60 0.20 -0.55 0.70 0.35 3 0.80 2.10 1.30 2.70 2.15 2.70 0.60 0 1.35 -0.40 1.60 -0.85 0.35 -0.65 0.50 10.40 0.55 35.10 0 28.05 -0.15 36.20 -0.60 36.65 -0.50 0.50 -0.50 0.75 0.05 1.10 0.65 0.35 0.60 0.85 -0.20 3.20 -0.55 1.55 -1.10 2.80 -1.30 2.80 -0.15 0 -0.65 -0.90 -1.10 -2 -0.55 -1.40 -1 -1.90 -1.50 -1.70 -0.60 0.20 -0.55 0.70 0.35 3 0.80 2.10 1.30 2.70 2.15 2.70 0.60 0 1.35 -0.40 1.60 -0.85 0.35 -0.65 0.50 10.40 0.55 35.10 0 28.05 -0.15 36.20 -0.60 36.65 -0.50 0.50 -0.50 0.75 0.05 1.10 0.65 0.35 0.60 0.85 -0.20 3.20 -0.55 1.55 -1.10 2.80 -1.30 2.80 -0.15 0 -0.65 -0.90 -1.10 -2 -0.55 -1.40 -1 -1.90 -1.50 -1.70 -0.60 0.20 -0.55 0.70 0.35 3 0.80 2.10 1.30 2.70 2.15 2.70 0.60 0 1.35 -0.40 1.65 -0.85 0.90 -1.50 0.25 48.40 -0.70 54.35 -1.15 6.95 -1.35 8 -1.85 8.30 -0.25 0.15 -0.45 0.80 -0.45 1.45 0 0.65 -0.25 1.35 -0.50 1.50 -0.25 0.15 -0.50 0.80 -0.50 1.40 -0.05 1.10 -1.35 3.25 -1.80 2.95 -0.10 -0.10 -0.50 -0.05 -0.85 0.05 -0.45 0.20 -0.45 0.35 0.05 0.90 0.95 1.05 0.75 1.90 -1.95 7.45 -1.40 2.90 -2.85 5.90 -3.25 6.75 -1.10 2.35 -2.35 4.40 -3.45 5.55 -1.25 1.30 -2.65 3.05 -5.75 7.20 -2.30 3.15 -10.55 11.50 -11.35 11.50 -0.25 0 -1.50 1.15 -2.85 2.50 -1.35 1.40 -2.70 2.50 -3.05 2.50 -0.30 0 -1 0.45 -1.50 1 -0.50 0.55 -1.10 1 -1.35 1 -0.20 0 -1.90 0.90 -3.70 2 -1.80 1.10 -3.50 2 -3.75 2 -0.65 0 -7.45 3.55 -7.75 4.10 -0.15 0.20 -0.50 0.30 -0.75 0.10 -0.30 -0.15 -0.90 0.05 -1.35 0.45 -1.95 1.65 -12.55 4.30 -21.60 5.35 -3.40 0.40 -336.40 0.55 -340.50 0.15z m-32.70 -11.70 c0.15 -0.30 0.10 -0.75 -0.10 -0.95 -0.60 -0.60 -1.90 0.25 -1.50 0.95 0.45 0.70 1.15 0.70 1.60 0z m-1.15 -3.25 c-0.15 -0.40 -0.45 -0.70 -0.65 -0.70 -0.65 0 -1.10 0.95 -0.75 1.50 0.45 0.70 1.70 0 1.40 -0.80z m448 -48 c-0.15 -0.40 -0.45 -0.70 -0.65 -0.70 -0.65 0 -1.10 0.95 -0.75 1.50 0.45 0.70 1.70 0 1.40 -0.80z m-248.85 -53.70 c0.60 -1.50 1.25 -3.20 1.40 -3.70 0.20 -0.80 0.35 -0.85 1 -0.30 0.70 0.55 0.80 0.30 0.80 -2.35 l0 -3 5.40 -0.30 c9.50 -0.50 21.50 -2.40 28.35 -4.45 5.20 -1.60 11.60 -4.20 12.50 -5.10 0.45 -0.45 1.40 -0.95 2.15 -1.10 2.70 -0.65 14.10 -6.80 15.30 -8.25 3.20 -3.80 1.55 -9.05 -3.25 -10.35 -1.65 -0.45 -2.30 -0.20 -9.25 3.20 -4.10 2.05 -8.95 4.20 -10.80 4.80 -1.90 0.60 -3.40 1.35 -3.40 1.65 0 1.30 -14.75 4.75 -24.50 5.75 -6.20 0.65 -16.30 0.65 -22.40 0 -6.05 -0.65 -17.85 -2.85 -19.85 -3.75 -0.80 -0.35 -2.60 -1.05 -4 -1.50 -1.35 -0.50 -2.70 -1.20 -2.90 -1.60 -0.20 -0.35 -0.70 -0.65 -1.05 -0.65 -0.90 0 -11.35 -4.65 -14.60 -6.50 -2.85 -1.65 -4.40 -1.85 -6.95 -0.80 -1.85 0.80 -3.75 3.35 -3.75 5.10 0 1.60 1.25 4.30 2.60 5.50 1.20 1.05 17.65 9.30 22.15 11.10 5.30 2.10 11.15 3.65 18.40 4.90 4.90 0.85 7.75 1.55 8 2 0.30 0.55 0.65 0.60 1.35 0.20 0.60 -0.35 2.50 -0.40 4.95 -0.20 l4 0.35 -1.45 1.80 c-1.65 2 -1.85 2.55 -0.80 2.55 0.60 0 0.50 0.55 -0.35 3 -0.60 1.65 -1.25 3 -1.40 3 -0.15 0 -0.65 -0.90 -1.10 -2 -0.55 -1.40 -1 -1.90 -1.50 -1.70 -0.60 0.20 -0.55 0.70 0.35 3 0.90 2.35 1.20 2.70 2.25 2.60 1 -0.10 1.50 -0.75 2.35 -2.90z m-4.80 -4.70 c0 -0.40 -0.20 -0.85 -0.40 -1 -0.65 -0.40 -1.75 0.55 -1.40 1.15 0.50 0.80 1.80 0.70 1.80 -0.15z m-1.20 -2.35 c0.15 -0.30 0.10 -0.75 -0.10 -0.95 -0.60 -0.60 -1.90 0.25 -1.50 0.95 0.45 0.70 1.15 0.70 1.60 0z m-58 -8.95 c0.60 -1.50 1.25 -3.20 1.40 -3.70 0.20 -0.80 0.35 -0.85 1 -0.30 0.70 0.55 0.80 0.20 0.80 -3.25 0 -2.15 -0.10 -3.80 -0.20 -3.70 -1.20 1.20 -4.30 5.25 -4.30 5.55 0 0.25 0.30 0.40 0.70 0.40 0.60 0 0.50 0.55 -0.35 3 -0.60 1.65 -1.25 3 -1.40 3 -0.15 0 -0.65 -0.90 -1.10 -2 -0.55 -1.40 -1 -1.90 -1.50 -1.70 -0.60 0.20 -0.55 0.70 0.35 3 0.90 2.35 1.20 2.70 2.25 2.60 1 -0.10 1.50 -0.75 2.35 -2.90z m-4.80 -4.70 c0 -0.40 -0.20 -0.85 -0.40 -1 -0.65 -0.40 -1.75 0.55 -1.40 1.15 0.50 0.80 1.80 0.70 1.80 -0.15z m320 0 c0 -0.40 -0.20 -0.85 -0.40 -1 -0.65 -0.40 -1.75 0.55 -1.40 1.15 0.50 0.80 1.80 0.70 1.80 -0.15z m-321.20 -2.35 c0.15 -0.30 0.10 -0.75 -0.10 -0.95 -0.60 -0.60 -1.90 0.25 -1.50 0.95 0.45 0.70 1.15 0.70 1.60 0z m320 0 c0.15 -0.30 0.10 -0.75 -0.10 -0.95 -0.60 -0.60 -1.90 0.25 -1.50 0.95 0.45 0.70 1.15 0.70 1.60 0z m-321.15 -3.25 c-0.15 -0.40 -0.45 -0.70 -0.65 -0.70 -0.65 0 -1.10 0.95 -0.75 1.50 0.45 0.70 1.70 0 1.40 -0.80z m320 0 c-0.15 -0.40 -0.45 -0.70 -0.65 -0.70 -0.65 0 -1.10 0.95 -0.75 1.50 0.45 0.70 1.70 0 1.40 -0.80z m-248.85 -53.70 c0.60 -1.50 1.25 -3.20 1.40 -3.70 0.20 -0.80 0.35 -0.85 1 -0.30 0.70 0.55 0.80 0.20 0.80 -3.25 0 -2.15 -0.10 -3.80 -0.20 -3.70 -1.20 1.20 -4.30 5.25 -4.30 5.55 0 0.25 0.30 0.40 0.70 0.40 0.60 0 0.50 0.55 -0.35 3 -0.60 1.65 -1.25 3 -1.40 3 -0.15 0 -0.65 -0.90 -1.10 -2 -0.55 -1.40 -1 -1.90 -1.50 -1.70 -0.60 0.20 -0.55 0.70 0.35 3 0.90 2.35 1.20 2.70 2.25 2.60 1 -0.10 1.50 -0.75 2.35 -2.90z m-44.30 1.80 c4.75 -0.85 11.05 -3.35 14.05 -5.60 1.30 -0.95 2.50 -1.70 2.70 -1.70 0.75 0 6.55 -5.05 8.50 -7.35 3.75 -4.45 5.15 -6.40 6.65 -9.40 3.65 -7.30 4.60 -13.30 4.60 -28.55 l0 -11.70 1.15 -0.25 c0.60 -0.15 6.05 -0.20 12.10 -0.15 l11 0.15 0.25 14 c0.25 12.45 0.40 14.45 1.40 17.85 2.15 7.60 3.15 9.50 8.90 16.65 3.05 3.80 4.60 5.20 9.55 8.55 6.35 4.35 10.75 6.30 16.85 7.45 5.85 1.15 50.40 1.10 56.35 -0.05 4.95 -0.95 12.50 -3.45 13.20 -4.40 0.30 -0.35 1.65 -1.25 3.05 -1.95 10.65 -5.40 18.55 -14.40 25 -28.35 1.75 -3.90 2.80 -10.55 3.05 -20.05 l0.25 -9.30 3.35 -0.35 c1.80 -0.15 8.75 -0.30 15.45 -0.30 l12.10 0 2 -2.05 c2.55 -2.65 2.65 -4.40 0.40 -6.50 -0.90 -0.80 -2.45 -1.70 -3.40 -1.95 -0.95 -0.30 -8.30 -0.50 -16.30 -0.50 l-14.55 0 -0.85 -3.15 c-0.45 -1.70 -1.30 -3.65 -1.80 -4.35 -0.55 -0.70 -1.95 -2.50 -3.10 -4 -3.20 -4.20 -5.80 -6.45 -9.65 -8.30 -6.80 -3.20 -6.45 -3.20 -55.35 -3.20 -41 0 -44.40 0.05 -47.95 0.90 -9.60 2.30 -16.45 9.80 -17.90 19.60 l-0.30 2.25 -11.85 0.15 -11.85 0.10 -0.55 -2.10 c-1.70 -6.65 -2.30 -8.20 -4.20 -10.85 -3.20 -4.55 -6.65 -7.10 -12.05 -8.90 -2.10 -0.65 -5.55 -0.85 -20.85 -1 -10.15 -0.15 -18.40 -0.45 -18.40 -0.65 0 -0.25 0.25 -1.05 0.50 -1.75 0.45 -1.15 0.65 -1.25 1.25 -0.75 0.65 0.55 0.75 0.10 0.75 -3.25 0 -2.15 -0.10 -3.80 -0.20 -3.70 -1.10 1.15 -4.30 5.25 -4.30 5.55 0 0.15 0.30 0.40 0.70 0.50 0.60 0.15 0.60 0.45 -0.05 2.05 -0.85 2.05 -2.30 2.50 -3.15 0.85 -0.55 -1.05 -2.10 -0.85 -1.70 0.25 0.25 0.60 -4.05 0.70 -25.65 0.90 -28.25 0.20 -27.90 0.15 -34.85 3.35 -2.45 1.10 -6.55 4.85 -8.20 7.45 -0.45 0.70 -1.50 2.20 -2.35 3.35 -0.80 1.10 -2.15 3.50 -3 5.35 l-1.50 3.35 -14 0 c-7.70 0 -14.90 0.25 -16 0.50 -2.25 0.50 -4.75 2.90 -4.75 4.55 0 1.45 1.85 4.85 2.95 5.45 0.60 0.30 6.35 0.50 15.15 0.50 7.80 0 14.65 0.15 15.20 0.30 1.05 0.25 1.10 0.65 1.35 9.85 0.25 9 1.15 15.55 2.25 16.35 0.25 0.15 0.70 1.25 1.05 2.50 0.95 3.35 4.80 10.75 7.80 15 2.60 3.70 7.20 8.20 11 10.80 4.10 2.80 10.75 6.60 12.10 6.95 0.75 0.15 1.50 0.55 1.70 0.80 0.15 0.25 2.85 1 6 1.70 5.60 1.15 6.20 1.20 30.45 1.20 18.70 0 25.65 -0.15 28.50 -0.65z m39.50 -6.50 c0 -0.40 -0.20 -0.85 -0.40 -1 -0.65 -0.40 -1.75 0.55 -1.40 1.15 0.50 0.80 1.80 0.70 1.80 -0.15z m-1.20 -2.35 c0.15 -0.30 0.10 -0.75 -0.10 -0.95 -0.60 -0.60 -1.90 0.25 -1.50 0.95 0.45 0.70 1.15 0.70 1.60 0z m-1.15 -3.25 c-0.15 -0.40 -0.45 -0.70 -0.65 -0.70 -0.65 0 -1.10 0.95 -0.75 1.50 0.45 0.70 1.70 0 1.40 -0.80z m258.35 -10.40 c0 -0.40 -0.20 -0.85 -0.40 -1 -0.65 -0.40 -1.75 0.55 -1.40 1.15 0.50 0.80 1.80 0.70 1.80 -0.15z m-1.20 -2.35 c0.15 -0.30 0.10 -0.75 -0.10 -0.95 -0.60 -0.60 -1.90 0.25 -1.50 0.95 0.45 0.70 1.15 0.70 1.60 0z m-1.15 -3.25 c-0.15 -0.40 -0.45 -0.70 -0.65 -0.70 -0.65 0 -1.10 0.95 -0.75 1.50 0.45 0.70 1.70 0 1.40 -0.80z m-248.85 -53.70 c0.60 -1.50 1.25 -3.20 1.40 -3.70 0.20 -0.80 0.35 -0.85 1 -0.30 0.70 0.55 0.80 0.20 0.80 -3.25 0 -2.15 -0.10 -3.80 -0.20 -3.70 -1.20 1.20 -4.30 5.25 -4.30 5.55 0 0.25 0.30 0.40 0.70 0.40 0.60 0 0.50 0.55 -0.35 3 -0.60 1.65 -1.25 3 -1.40 3 -0.15 0 -0.65 -0.90 -1.10 -2 -0.55 -1.40 -1 -1.90 -1.50 -1.70 -0.60 0.20 -0.55 0.70 0.35 3 0.90 2.35 1.20 2.70 2.25 2.60 1 -0.10 1.50 -0.75 2.35 -2.90z m-4.80 -4.70 c0 -0.40 -0.20 -0.85 -0.40 -1 -0.65 -0.40 -1.75 0.55 -1.40 1.15 0.50 0.80 1.80 0.70 1.80 -0.15z m-1.20 -2.35 c0.15 -0.30 0.10 -0.75 -0.10 -0.95 -0.60 -0.60 -1.90 0.25 -1.50 0.95 0.45 0.70 1.15 0.70 1.60 0z m-1.15 -3.25 c-0.15 -0.40 -0.45 -0.70 -0.65 -0.70 -0.65 0 -1.10 0.95 -0.75 1.50 0.45 0.70 1.70 0 1.40 -0.80z m-61.65 -10.40 c0 -0.40 -0.20 -0.85 -0.40 -1 -0.65 -0.40 -1.75 0.55 -1.40 1.15 0.50 0.80 1.80 0.70 1.80 -0.15z m320 0 c0 -0.40 -0.20 -0.85 -0.40 -1 -0.65 -0.40 -1.75 0.55 -1.40 1.15 0.50 0.80 1.80 0.70 1.80 -0.15z m-321.20 -2.35 c0.15 -0.30 0.10 -0.75 -0.10 -0.95 -0.60 -0.60 -1.90 0.25 -1.50 0.95 0.45 0.70 1.15 0.70 1.60 0z m320 0 c0.15 -0.30 0.10 -0.75 -0.10 -0.95 -0.60 -0.60 -1.90 0.25 -1.50 0.95 0.45 0.70 1.15 0.70 1.60 0z m-321.15 -3.25 c-0.15 -0.40 -0.45 -0.70 -0.65 -0.70 -0.65 0 -1.10 0.95 -0.75 1.50 0.45 0.70 1.70 0 1.40 -0.80z m320 0 c-0.15 -0.40 -0.45 -0.70 -0.65 -0.70 -0.65 0 -1.10 0.95 -0.75 1.50 0.45 0.70 1.70 0 1.40 -0.80z m-312.85 -69.70 c0.60 -1.50 1.25 -3.20 1.40 -3.70 0.20 -0.80 0.35 -0.85 1 -0.30 0.70 0.55 0.80 0.20 0.80 -3.25 0 -2.15 -0.10 -3.80 -0.20 -3.70 -1.20 1.20 -4.30 5.25 -4.30 5.55 0 0.25 0.30 0.40 0.70 0.40 0.60 0 0.50 0.55 -0.35 3 -0.60 1.65 -1.25 3 -1.40 3 -0.15 0 -0.65 -0.90 -1.10 -2 -0.55 -1.40 -1 -1.90 -1.50 -1.70 -0.60 0.20 -0.55 0.70 0.35 3 0.90 2.35 1.20 2.70 2.25 2.60 1 -0.10 1.50 -0.75 2.35 -2.90z m-4.80 -4.70 c0 -0.40 -0.20 -0.85 -0.40 -1 -0.65 -0.40 -1.75 0.55 -1.40 1.15 0.50 0.80 1.80 0.70 1.80 -0.15z m-1.20 -2.35 c0.15 -0.30 0.10 -0.75 -0.10 -0.95 -0.60 -0.60 -1.90 0.25 -1.50 0.95 0.45 0.70 1.15 0.70 1.60 0z m-1.15 -3.25 c-0.15 -0.40 -0.45 -0.70 -0.65 -0.70 -0.65 0 -1.10 0.95 -0.75 1.50 0.45 0.70 1.70 0 1.40 -0.80z"/>
  <path d="M228.25 402.25 c-4.15 -0.90 -8.90 -2.65 -9.50 -3.40 -0.25 -0.40 -1.15 -1.10 -2 -1.60 -7.20 -4.40 -10.50 -7.20 -11.95 -10.10 -0.55 -1.05 -1.50 -2.60 -2.15 -3.50 l-1.15 -1.60 0.90 -2.40 c0.55 -1.30 1.10 -2.80 1.30 -3.35 0.25 -0.75 0.45 -0.80 1.05 -0.30 0.65 0.55 0.75 0.10 0.75 -3.25 0 -2.15 -0.10 -3.80 -0.20 -3.70 -1.20 1.20 -4.30 5.25 -4.30 5.55 0 0.25 0.35 0.40 0.75 0.40 0.65 0 0.65 0.20 0.10 1.60 -0.80 1.90 -1.65 2.30 -2.10 0.95 -0.15 -0.60 -0.50 -1.05 -0.75 -1.05 -0.20 0 -0.55 -1.20 -0.75 -2.60 -0.20 -1.45 -0.65 -2.80 -0.95 -3 -0.40 -0.25 -0.55 -5.05 -0.55 -16.50 0 -15.50 0.05 -16.25 1.10 -18.40 1.50 -3.20 4.80 -6.75 7.55 -8.10 l2.35 -1.15 47.50 -0.15 c33.45 -0.10 48.05 0 49.40 0.40 2.70 0.80 5.10 3.10 5.80 5.65 0.45 1.55 0.55 8.10 0.45 24.35 -0.20 21.80 -0.20 22.30 -1.35 25.40 -0.65 1.75 -1.75 4.20 -2.45 5.45 -1.20 2.20 -6.25 7.40 -8 8.35 -0.45 0.25 -1.55 1.10 -2.35 1.85 -0.85 0.80 -3.45 2.20 -5.75 3.05 l-4.25 1.65 -27.75 0.10 c-21.55 0.05 -28.40 -0.10 -30.75 -0.60z m20.55 -24 c3.20 -1.95 9.85 -4.25 12.25 -4.25 0.80 0 1.45 -0.20 1.45 -0.50 0 -0.25 0.90 -0.50 2 -0.50 1.10 0 2 0.25 2 0.50 0 0.30 0.85 0.50 1.90 0.50 3.55 0 11 2.70 14.40 5.25 1 0.75 1.15 0.70 2.25 -0.85 1.75 -2.35 3.10 -7.10 3.05 -10.90 0 -5.10 -3.45 -12.85 -7.20 -16.35 -6.80 -6.30 -13.75 -8.35 -21.15 -6.25 -5.80 1.60 -12.15 6.70 -14.90 12 -3.60 6.90 -3.80 13.90 -0.55 20.50 0.75 1.40 1.40 2.60 1.45 2.60 0.05 0 1.45 -0.80 3.05 -1.75z"/>
  <path d="M383.75 402.65 c-4.15 -0.85 -8.85 -3 -12.15 -5.50 -6.95 -5.30 -10.45 -10.25 -12.30 -17.50 -1.15 -4.35 -1.20 -45.10 -0.05 -47.80 0.90 -2.15 3.20 -4.15 5.65 -4.85 2.55 -0.70 93.50 -0.65 96.60 0.05 2.95 0.70 5.85 2.55 8 5.25 3 3.70 3.15 4.55 3.40 20 0.20 11.90 0.10 14.60 -0.65 18 -0.85 4 -2.20 8.25 -2.75 8.70 -0.15 0.15 -1.15 1.80 -2.20 3.70 -4.25 7.65 -6.95 10.45 -13.55 14.05 -1.35 0.75 -2.70 1.65 -3 1.95 -0.85 1.10 -6.85 3.20 -10.60 3.75 -3.45 0.50 -54.05 0.70 -56.40 0.20z m4.50 -24.35 c4.85 -2.95 8.30 -3.90 15 -4.15 8 -0.35 13.40 1.10 18.90 4.95 1.35 1 1.45 1 2.10 0.10 0.40 -0.55 1.15 -2.30 1.75 -3.95 0.55 -1.65 1.25 -3.40 1.50 -3.85 0.65 -1.15 0.65 -6.65 0 -7.80 -0.25 -0.45 -1.15 -2.55 -2 -4.60 -0.80 -2.05 -2.40 -4.80 -3.50 -6.10 -2.50 -2.90 -9 -7.30 -11.45 -7.65 -1 -0.20 -2.30 -0.55 -2.85 -0.85 -1.20 -0.55 -4.60 -0.35 -8.85 0.60 -3.05 0.70 -3.65 0.55 -3.15 -0.80 0.25 -0.65 0.45 -0.70 1.05 -0.20 0.65 0.55 0.75 0.10 0.75 -3.25 0 -2.15 -0.10 -3.80 -0.20 -3.70 -1.20 1.20 -4.30 5.25 -4.30 5.55 0 0.25 0.35 0.40 0.75 0.40 0.60 0 0.60 0.35 -0.20 2.40 -1.10 2.80 -2.10 3.20 -2.90 1.10 -0.40 -1 -0.80 -1.40 -1.30 -1.20 -0.70 0.25 -0.65 0.55 0.10 2.35 l0.90 2.05 -1.50 1.25 c-3.15 2.65 -6.90 10.10 -7.60 14.95 -0.40 2.90 0.55 7.20 2.55 11.35 0.70 1.50 1.35 2.75 1.45 2.75 0.05 0 1.40 -0.75 3 -1.70z m1.25 -35 c0 -0.40 -0.20 -0.85 -0.40 -1 -0.65 -0.40 -1.75 0.55 -1.40 1.15 0.50 0.80 1.80 0.70 1.80 -0.15z m-1.20 -2.35 c0.15 -0.30 0.10 -0.75 -0.10 -0.95 -0.60 -0.60 -1.90 0.25 -1.50 0.95 0.45 0.70 1.15 0.70 1.60 0z m-1.15 -3.25 c-0.15 -0.40 -0.45 -0.70 -0.65 -0.70 -0.65 0 -1.10 0.95 -0.75 1.50 0.45 0.70 1.70 0 1.40 -0.80z"/>
  <path d="M327.30 172.25 c-0.15 -0.45 0 -0.75 0.45 -0.75 0.40 0 0.75 0.35 0.75 0.75 0 0.40 -0.20 0.75 -0.45 0.75 -0.25 0 -0.55 -0.35 -0.75 -0.75z"/>
  <path d="M220.35 164.15 c-0.55 -0.50 -0.40 -66.60 0.15 -69.15 1.10 -5.05 2.25 -7.55 4.85 -10.55 1.45 -1.65 2.65 -3.20 2.65 -3.40 0 -0.25 0.40 -0.55 0.90 -0.70 0.45 -0.15 1.40 -0.60 2.10 -1 4.30 -2.50 6.65 -2.85 19.35 -2.85 l11.65 0 0.30 1.25 c0.45 1.75 2.50 1.75 3.30 0 l0.55 -1.25 82.40 0 c69.60 0 82.85 0.10 85.15 0.70 3.90 1.05 9.45 5.20 11.85 8.90 3.90 6.05 3.70 3.90 3.55 43.15 l-0.10 35 -57.75 0.15 -57.75 0.10 0 -1.85 0 -1.90 -1.55 1.90 c-1.45 1.75 -1.70 1.85 -4.45 1.85 -1.60 0 -3.10 -0.25 -3.25 -0.50 -0.20 -0.35 -0.60 -0.35 -1.25 0 -1.05 0.55 -102.10 0.75 -102.65 0.15z m102.80 -2.45 c-0.15 -0.40 -0.45 -0.70 -0.65 -0.70 -0.65 0 -1.10 0.95 -0.75 1.50 0.45 0.70 1.70 0 1.40 -0.80z"/>
 </g>
 <g fill="#010100">
  <path d="M322.75 483.45 c-15.70 -2.35 -21.05 -3.50 -28.25 -6.25 -4.70 -1.80 -21.55 -10.20 -22.90 -11.40 -1.70 -1.50 -2.60 -4 -2.60 -7.05 0 -3.55 1.45 -5.65 4.75 -6.90 3.10 -1.15 5.50 -0.85 9 1.15 3.10 1.80 12.95 6.20 14.90 6.70 0.75 0.15 1.25 0.55 1.10 0.80 -0.15 0.30 0.05 0.35 0.45 0.20 0.45 -0.15 0.80 -0.10 0.80 0.20 0 0.30 0.85 0.80 1.90 1.10 1 0.30 2.55 0.90 3.35 1.25 1.95 0.85 13.70 3.10 19.85 3.75 9.35 1 18.85 0.50 29.65 -1.55 5.15 -0.95 7.95 -1.60 9.75 -2.30 0.90 -0.40 0.90 -0.35 2.90 -0.85 0.85 -0.20 1.60 -0.65 1.60 -1 0 -0.35 1.30 -1 2.90 -1.50 1.55 -0.50 6.55 -2.70 11.05 -4.90 7.55 -3.65 8.45 -4 10.45 -3.70 4.80 0.65 7.10 3.15 7.10 7.65 0 3.45 -0.95 5.70 -3.05 7.25 -2.05 1.50 -12.15 6.60 -14.05 7.05 -0.75 0.20 -1.70 0.70 -2.15 1.15 -0.90 0.90 -7.30 3.50 -12.50 5.10 -7.25 2.15 -19.25 4 -29.10 4.45 l-6.15 0.25 0 -1.65 0 -1.70 -1.30 1.65 c-1.15 1.45 -1.50 1.60 -3.85 1.55 -1.45 -0.05 -3.95 -0.25 -5.60 -0.50z m0.40 -1.75 c-0.15 -0.40 -0.45 -0.70 -0.65 -0.70 -0.65 0 -1.10 0.95 -0.75 1.50 0.45 0.70 1.70 0 1.40 -0.80z"/>
  <path d="M225.55 414.75 c-3.15 -0.70 -5.85 -1.45 -6 -1.70 -0.20 -0.25 -0.95 -0.65 -1.70 -0.80 -1.35 -0.35 -8 -4.15 -12.10 -6.95 -3.80 -2.60 -8.40 -7.10 -11 -10.80 -3.15 -4.45 -6.95 -11.80 -7.80 -15.10 -0.35 -1.30 -0.80 -2.25 -0.95 -2.15 -0.95 0.60 -2.15 -8 -2.40 -16.85 -0.20 -8.90 -0.25 -9.35 -1.25 -9.60 -0.55 -0.15 -7.40 -0.25 -15.20 -0.20 -16.10 0 -15.70 0.10 -17.60 -4 -0.90 -1.90 -1.10 -2.95 -0.85 -4.35 0.50 -2.45 2.60 -4.70 5.05 -5.25 1.10 -0.25 8.30 -0.50 16 -0.50 l14 0 1.50 -3.35 c0.85 -1.85 2.20 -4.25 3 -5.35 0.85 -1.15 1.90 -2.65 2.35 -3.35 1.80 -2.80 5.75 -6.30 8.55 -7.60 6.70 -3.05 7.15 -3.10 35.60 -3.10 l25.95 0 1.05 2.65 c0.85 2.30 1.15 2.60 2.25 2.50 0.95 -0.10 1.45 -0.70 2.25 -2.80 l1 -2.65 19 0.20 c15.95 0.15 19.40 0.35 21.50 1 5.40 1.80 8.85 4.35 12.05 8.90 1.90 2.65 2.50 4.20 4.20 10.85 l0.55 2.10 10.35 -0.10 10.35 -0.15 0.30 -2.25 c1.45 -9.80 8.30 -17.30 17.90 -19.60 3.55 -0.85 7 -0.90 49.45 -0.90 50.55 0 50 -0.05 56.85 3.20 1.95 0.95 4.40 2.55 5.55 3.60 2.40 2.30 6.20 7.10 6.20 7.85 0 0.30 0.15 0.35 0.35 0.20 0.45 -0.45 1.95 2.75 2.65 5.75 l0.60 2.35 15.60 0.15 15.65 0.15 2.05 1.45 c2.35 1.60 3.35 3.95 2.90 6.55 -0.35 1.65 -3.70 5.70 -4.90 5.80 -0.35 0.05 -6.40 0.15 -13.40 0.20 -7 0.10 -13.70 0.15 -14.80 0.20 l-2.10 0.05 -0.25 9.40 c-0.25 9.55 -1.25 16.20 -3.05 20.10 -1.55 3.30 -5.45 10.25 -7.45 13.25 -3.80 5.60 -11 11.75 -17.55 15.10 -1.40 0.70 -2.75 1.60 -3.05 1.95 -0.70 0.95 -8.25 3.45 -13.20 4.40 -5.95 1.15 -53.50 1.20 -59.35 0.05 -6.10 -1.15 -10.50 -3.10 -16.85 -7.45 -4.95 -3.35 -6.50 -4.75 -9.55 -8.55 -5.75 -7.15 -6.75 -9.05 -8.90 -16.65 -1 -3.40 -1.15 -5.40 -1.40 -17.85 l-0.25 -14 -9.50 -0.15 c-5.20 -0.05 -10 0 -10.60 0.15 l-1.15 0.25 0 11.70 c0 20.55 -1.85 26.85 -11.25 37.95 -1.95 2.30 -7.75 7.35 -8.50 7.35 -0.20 0 -1.40 0.75 -2.70 1.70 -3 2.25 -9.30 4.75 -14.05 5.60 -2.85 0.50 -10.05 0.65 -30 0.65 -25.85 0 -26.35 -0.05 -31.95 -1.20z m63.95 -15.15 c2.30 -0.90 4.90 -2.25 5.75 -3.05 0.80 -0.75 1.90 -1.60 2.35 -1.85 1.75 -0.95 6.80 -6.15 8 -8.35 0.70 -1.25 1.80 -3.70 2.45 -5.45 1.10 -3.05 1.15 -3.70 1.35 -23.90 0.10 -15.15 0 -21.30 -0.45 -22.85 -0.70 -2.55 -3.10 -4.85 -5.80 -5.65 -1.35 -0.40 -15.55 -0.50 -47.90 -0.40 l-46 0.15 -2.35 1.15 c-2.75 1.35 -6.05 4.90 -7.55 8.10 -1.05 2.15 -1.10 2.90 -1.10 16.90 0 10.20 0.15 14.75 0.55 15 0.50 0.30 1.10 2.45 1.35 4.75 0.05 0.45 0.25 0.85 0.40 0.85 0.80 0 1 2.05 0.40 4 -0.35 1.10 -0.75 2 -0.95 2 -0.20 0 -0.70 -0.90 -1.15 -2 -0.55 -1.40 -1 -1.90 -1.50 -1.70 -0.60 0.20 -0.55 0.70 0.35 3 0.85 2.15 1.25 2.70 2.20 2.70 0.85 0 1.35 -0.50 1.95 -1.85 0.50 -1.25 0.90 -1.65 1.05 -1.15 0.15 0.40 0.75 1.45 1.35 2.25 0.55 0.85 1.50 2.35 2.05 3.40 1.45 2.90 4.75 5.70 11.95 10.10 0.85 0.50 1.75 1.20 2 1.60 0.30 0.35 1.85 1.10 3.50 1.70 6.65 2.30 7.55 2.35 35.25 2.30 l26.25 -0.10 4.25 -1.65z m149.10 1.35 c3.80 -0.55 9.80 -2.65 10.65 -3.75 0.30 -0.30 1.65 -1.20 3 -1.95 6.60 -3.60 9.30 -6.40 13.55 -14.05 1.05 -1.90 2.10 -3.60 2.35 -3.75 0.25 -0.15 0.40 -0.45 0.40 -0.65 -0.05 -0.15 0.25 -1.05 0.60 -1.95 0.35 -0.85 1.05 -3.55 1.55 -5.95 0.80 -3.75 0.90 -6.10 0.70 -16.75 -0.30 -13.65 -0.50 -14.75 -3.40 -18.35 -2.15 -2.70 -5.05 -4.55 -8 -5.25 -3.10 -0.70 -91.05 -0.75 -93.60 -0.05 -2.45 0.70 -4.75 2.70 -5.65 4.85 -1.15 2.70 -1.10 40.45 0.05 44.80 1.85 7.25 5.35 12.20 12.30 17.50 3.30 2.50 8.15 4.70 12.15 5.50 2.45 0.50 49.90 0.35 53.35 -0.20z m-241.10 -25.65 c0 -0.40 -0.20 -0.85 -0.40 -1 -0.65 -0.40 -1.75 0.55 -1.40 1.15 0.50 0.80 1.80 0.70 1.80 -0.15z m-1.20 -2.35 c0.15 -0.30 0.10 -0.75 -0.10 -0.95 -0.60 -0.60 -1.90 0.25 -1.50 0.95 0.45 0.70 1.15 0.70 1.60 0z m-1.15 -3.25 c-0.15 -0.40 -0.45 -0.70 -0.65 -0.70 -0.65 0 -1.10 0.95 -0.75 1.50 0.45 0.70 1.70 0 1.40 -0.80z"/>
  <path d="M244.35 381.65 c-2.90 -4.60 -3.80 -7.95 -3.85 -13.75 0 -9.70 3.05 -15.50 11.55 -21.60 3.85 -2.75 8.45 -3.95 14.20 -3.65 5.90 0.30 8.80 1.30 12.85 4.35 5.20 3.90 8.60 9 9.95 14.80 0.30 1.35 0.75 3.15 1 4 0.50 1.60 0.25 3.20 -1.45 9.45 -0.65 2.30 -3 6.75 -4.30 8.15 -0.10 0.05 -1 -0.70 -2.10 -1.75 -3.25 -3.05 -10.90 -6.15 -15.30 -6.15 -1 0 -1.95 -0.30 -2.10 -0.60 -0.25 -0.50 -0.35 -0.50 -0.60 0 -0.15 0.30 -0.90 0.60 -1.70 0.60 -1.85 0 -7.65 1.80 -10.65 3.30 -1.30 0.70 -3.25 2.05 -4.35 3 l-1.95 1.75 -1.20 -1.90z"/>
  <path d="M383.75 381.45 c-2.75 -4.25 -3.95 -8.25 -3.95 -13.70 -0.05 -4.15 0.15 -5.50 1.15 -8 1.75 -4.30 4.30 -8.40 6.40 -10.25 1.70 -1.55 1.85 -1.55 2.50 -0.70 0.35 0.50 0.65 1.20 0.65 1.60 0 0.45 0.45 0.60 1.35 0.50 1.20 -0.15 1.55 -0.60 2.65 -3.55 1 -2.65 1.45 -3.35 2.15 -3.15 0.45 0.10 0.85 0.05 0.85 -0.15 0 -1.25 11.05 -2.20 11.75 -1.05 0.20 0.30 0.50 0.40 0.75 0.25 0.75 -0.45 4.70 1.30 8.15 3.60 4.50 3.05 7 6.05 8.85 10.65 0.85 2.05 1.75 4.15 2 4.60 0.60 1.05 0.65 10 0.10 10.70 -0.20 0.25 -0.80 1.70 -1.30 3.20 -0.50 1.50 -1.60 3.80 -2.40 5.15 l-1.50 2.35 -1.95 -1.75 c-5.75 -5.20 -15.75 -7.50 -23.70 -5.50 -4.25 1.10 -10.05 4.05 -11.35 5.80 -0.60 0.80 -1.25 1.45 -1.45 1.45 -0.15 0 -0.95 -0.90 -1.70 -2.05z"/>
  <path d="M391.25 347.95 c-0.25 -0.70 -0.05 -1.25 0.60 -1.70 1.40 -1.10 1.60 -0.90 1 1 -0.60 2 -1.15 2.20 -1.60 0.70z"/>
  <path d="M263.05 315.45 c-0.70 -2.05 -0.75 -1.95 0.90 -1.95 1.45 0 1.45 0.05 0.90 1.75 -0.65 2.15 -1.10 2.20 -1.80 0.20z"/>
 </g>
</svg>