<svg xmlns="http://www.w3.org/2000/svg" width="256" height="256" viewBox="0 0 128 128">
<rect width="128" height="128" fill="#FFFFFF" rx="12"/>
<g id="head-shaded">
    <rect x="40" y="99" width="48" height="14" fill="#f9de4e"/>
    <rect x="19" y="21" width="90" height="76" rx="18" fill="#f9de4e"/>
    <path d="M 48 19 L 48 10 Q 48 6 52 6 L 76 6 Q 80 6 80 10 L 80 19 Z" fill="#f9de4e"/>
    <rect x="19" y="25" width="6" height="68" rx="3" fill="white" opacity="0.08"/>
    <rect x="103" y="25" width="6" height="68" rx="3" fill="black" opacity="0.05"/>
  </g>
<g id="eyebrows-worried">
    <line x1="38" y1="48" x2="54" y2="43" stroke="#A855F7" stroke-width="2.5" stroke-linecap="round"/>
    <line x1="74" y1="43" x2="90" y2="48" stroke="#A855F7" stroke-width="2.5" stroke-linecap="round"/>
  </g>
<g id="eyes-sleepy">
    <ellipse cx="46" cy="56" rx="5" ry="2.5" fill="#1a1a1a"/>
    <ellipse cx="82" cy="56" rx="5" ry="2.5" fill="#1a1a1a"/>
  </g>
<g id="mouth-frown">
    <path d="M 51 77 Q 64 71 77 77" fill="none" stroke="#1a1a1a"
          stroke-width="2.5" stroke-linecap="round"/>
  </g>
</svg>