<svg width="256" height="256" viewBox="0 0 256 256" fill="none" xmlns="http://www.w3.org/2000/svg">
<rect width="256" height="256" fill="white"/>
<path d="M83.1206 24.0515C83.1206 19.5277 86.7879 15.8604 91.3118 15.8604H161.346C165.87 15.8604 169.538 19.5277 169.538 24.0515V49.0346H83.1206V24.0515Z" fill="#FFDD15"/>
<rect x="31.7209" y="52.311" width="189.216" height="164.643" rx="32.7647" fill="#FFDD15"/>
<path d="M69.6051 220.23H183.053V239.889H69.6051V220.23Z" fill="#FFDD15"/>
<path d="M108.636 117.818C108.636 123.241 104.241 127.636 98.8182 127.636C93.3957 127.636 89 123.241 89 117.818C89 112.396 93.3957 108 98.8182 108C104.241 108 108.636 112.396 108.636 117.818Z" fill="black"/>
<path d="M161 117.818C161 123.241 156.604 127.636 151.182 127.636C145.759 127.636 141.364 123.241 141.364 117.818C141.364 112.396 145.759 108 151.182 108C156.604 108 161 112.396 161 117.818Z" fill="black"/>
<path d="M59.5552 57.9075C28.9439 59.9619 35.5311 118.925 35.7249 124.266L42.5059 107.831L48.8994 117.897L50.8368 93.0386L59.5552 107.831L75.2483 77.8356L77.5732 102.489L95.3975 75.5757L97.5287 91.6005C102.308 84.4784 113.299 70.2342 119.034 70.2342C119.68 73.5898 122.018 82.2322 126.202 89.9569C132.015 82.2185 137.877 70.2342 140.202 70.2342C142.527 70.2342 149.374 78.2876 159.914 95.7094C160.301 31.6105 183.55 144.194 182.775 105.16C182.155 73.9322 191.042 90.3678 195.562 102.489L199.631 97.7638C199.786 107.132 204.087 118.103 206.218 122.417L210.48 107.831C211.707 113.309 214.626 124.266 216.486 124.266C220.826 71.3437 201.504 57.976 191.3 57.9075C157.589 57.2227 84.0442 56.2639 59.5552 57.9075Z" fill="black" stroke="black" stroke-width="0.410161"/>
<circle cx="63.0606" cy="131.212" r="3.21212" fill="#D77732"/>
<circle cx="50.2121" cy="131.212" r="3.21212" fill="#D77732"/>
<circle cx="56.6363" cy="137.636" r="3.21212" fill="#D77732"/>
<circle cx="202.788" cy="131.212" r="3.21212" fill="#D77732"/>
<circle cx="189.939" cy="131.212" r="3.21212" fill="#D77732"/>
<circle cx="196.364" cy="137.636" r="3.21212" fill="#D77732"/>
<rect x="115.118" y="207.46" width="20.7648" height="9.54058" fill="black"/>
<rect x="115.118" y="204.934" width="2.52545" height="2.52545" fill="black"/>
<rect x="118.765" y="204.934" width="2.52545" height="2.52545" fill="black"/>
<rect x="122.413" y="204.934" width="2.52545" height="2.52545" fill="black"/>
<rect x="126.061" y="204.934" width="2.52545" height="2.52545" fill="black"/>
<rect x="129.709" y="204.934" width="2.52545" height="2.52545" fill="black"/>
<rect x="133.357" y="204.934" width="2.52545" height="2.52545" fill="black"/>
<path d="M102 179C121.526 189.361 132.475 189.968 152 179" stroke="black" stroke-width="6.60377" stroke-linecap="round"/>
</svg>
